<?xml version="1.0" standalone="no"?>
<!DOCTYPE svg PUBLIC "-//W3C//DTD SVG 20010904//EN"
 "http://www.w3.org/TR/2001/REC-SVG-20010904/DTD/svg10.dtd">
<svg version="1.0" xmlns="http://www.w3.org/2000/svg"
 width="107.000000pt" height="83.000000pt" viewBox="0 0 107.000000 83.000000"
 preserveAspectRatio="xMidYMid meet">
<metadata>
Created by potrace 1.16, written by Peter Selinger 2001-2019
</metadata>
<g transform="translate(0.000000,83.000000) scale(0.100000,-0.100000)"
fill="#000000" stroke="none">
<path d="M0 415 l0 -415 535 0 535 0 0 415 0 415 -535 0 -535 0 0 -415z m565
164 c5 4 48 37 95 73 l86 66 142 -150 142 -151 -128 -122 c-70 -67 -141 -134
-159 -149 l-32 -27 -68 59 c-37 32 -73 61 -80 65 -6 4 -44 -21 -88 -58 l-77
-65 -31 26 c-18 15 -89 82 -159 149 l-127 123 141 150 142 150 95 -73 c55 -43
100 -71 106 -66z"/>
<path d="M271 519 l-94 -100 49 -50 c27 -28 75 -73 107 -101 l58 -51 47 47 47
47 -25 22 c-14 12 -43 36 -64 53 l-39 30 62 49 62 49 -53 53 c-29 29 -55 53
-58 53 -3 -1 -47 -46 -99 -101z"/>
<path d="M682 567 l-53 -53 61 -48 62 -49 -38 -31 c-21 -17 -50 -41 -64 -53
l-25 -22 47 -47 47 -47 58 51 c32 28 80 73 107 101 l49 50 -93 98 c-50 54 -95
99 -99 101 -4 1 -30 -22 -59 -51z"/>
</g>
</svg>
